<svg xmlns="http://www.w3.org/2000/svg" xmlns:xlink="http://www.w3.org/1999/xlink" width="98" height="86" viewBox="0 0 98 86"><defs><style>.a,.b{fill:#fff;stroke:#000;font-size:51px;font-family:Algerian;}.b{stroke-linejoin:round;}.c{filter:url(#i);}.d{filter:url(#g);}.e{filter:url(#e);}.f{filter:url(#c);}.g{filter:url(#a);}</style><filter id="a" x="0" y="0" width="50" height="76" filterUnits="userSpaceOnUse"><feOffset dy="3" input="SourceAlpha"/><feGaussianBlur stdDeviation="3" result="b"/><feFlood flood-opacity="0.988"/><feComposite operator="in" in2="b"/><feComposite in="SourceGraphic"/></filter><filter id="c" x="14" y="0" width="51" height="76" filterUnits="userSpaceOnUse"><feOffset dy="3" input="SourceAlpha"/><feGaussianBlur stdDeviation="3" result="d"/><feFlood/><feComposite operator="in" in2="d"/><feComposite in="SourceGraphic"/></filter><filter id="e" x="44" y="1" width="54" height="76" filterUnits="userSpaceOnUse"><feOffset dy="3" input="SourceAlpha"/><feGaussianBlur stdDeviation="3" result="f"/><feFlood/><feComposite operator="in" in2="f"/><feComposite in="SourceGraphic"/></filter><filter id="g" x="21" y="10" width="53" height="76" filterUnits="userSpaceOnUse"><feOffset dy="3" input="SourceAlpha"/><feGaussianBlur stdDeviation="3" result="h"/><feFlood flood-color="#fff"/><feComposite operator="in" in2="h"/><feComposite in="SourceGraphic"/></filter><filter id="i" x="37" y="1" width="52" height="76" filterUnits="userSpaceOnUse"><feOffset dx="5" dy="3" input="SourceAlpha"/><feGaussianBlur stdDeviation="3" result="j"/><feFlood flood-color="#040404"/><feComposite operator="in" in2="j"/><feComposite in="SourceGraphic"/></filter></defs><g transform="translate(-794 -432)"><g class="g" transform="matrix(1, 0, 0, 1, 794, 432)"><text class="a" transform="translate(11 52)"><tspan x="0" y="0">S</tspan></text></g><g class="f" transform="matrix(1, 0, 0, 1, 794, 432)"><text class="a" transform="translate(24 52)"><tspan x="0" y="0">P</tspan></text></g><g class="e" transform="matrix(1, 0, 0, 1, 794, 432)"><text class="a" transform="matrix(-1, 0, 0, 1, 88, 53)"><tspan x="0" y="0">R</tspan></text></g><g class="d" transform="matrix(1, 0, 0, 1, 794, 432)"><text class="b" transform="matrix(1, 0, 0, -1, 33, 28)"><tspan x="0" y="0">T</tspan></text></g><g class="c" transform="matrix(1, 0, 0, 1, 794, 432)"><text class="a" transform="translate(42 53)"><tspan x="0" y="0">O</tspan></text></g></g></svg>