<svg id="Clock" xmlns="http://www.w3.org/2000/svg" width="22.928" height="22.929" viewBox="0 0 22.928 22.929">
  <path id="Path_13" data-name="Path 13" d="M3.439,3.439A10.408,10.408,0,0,1,11.464,0a10.408,10.408,0,0,1,8.025,3.439,10.408,10.408,0,0,1,3.439,8.025,10.408,10.408,0,0,1-3.439,8.025,10.408,10.408,0,0,1-8.025,3.439,10.408,10.408,0,0,1-8.025-3.439A11.441,11.441,0,0,1,0,11.464,10.408,10.408,0,0,1,3.439,3.439ZM16.623,16.623l1.337-1.337-4.777-4.777-1.72-7.643H9.554v8.6a1.735,1.735,0,0,0,.573,1.337.667.667,0,0,0,.382.191Z" fill="#1604ff"/>
</svg>
