<svg xmlns="http://www.w3.org/2000/svg" width="45" height="45" viewBox="0 0 45 45">
  <g id="Group_7" data-name="Group 7" transform="translate(-671 -751)">
    <g id="Group_6" data-name="Group 6" transform="translate(670.812 727)">
      <path id="Path_209" data-name="Path 209" d="M10,0H35A10,10,0,0,1,45,10V35A10,10,0,0,1,35,45H10A10,10,0,0,1,0,35V10A10,10,0,0,1,10,0Z" transform="translate(0.188 24)" fill="#fff"/>
    </g>
    <g id="Instagram" transform="translate(674.012 734.487)">
      <path id="Path_3" data-name="Path 3" d="M16.673,2.964a51.124,51.124,0,0,1,6.669.185,8.593,8.593,0,0,1,3.149.556,6.506,6.506,0,0,1,3.149,3.149A8.593,8.593,0,0,1,30.2,10c0,1.667.185,2.223.185,6.669a51.125,51.125,0,0,1-.185,6.669,8.593,8.593,0,0,1-.556,3.149,6.506,6.506,0,0,1-3.149,3.149,8.593,8.593,0,0,1-3.149.556c-1.667,0-2.223.185-6.669.185A51.125,51.125,0,0,1,10,30.2a8.593,8.593,0,0,1-3.149-.556,6.506,6.506,0,0,1-3.149-3.149,8.593,8.593,0,0,1-.556-3.149c0-1.667-.185-2.223-.185-6.669A51.124,51.124,0,0,1,3.149,10a8.593,8.593,0,0,1,.556-3.149A6.654,6.654,0,0,1,5,5a3.132,3.132,0,0,1,1.853-1.3A8.593,8.593,0,0,1,10,3.149a51.124,51.124,0,0,1,6.669-.185m0-2.964A54.739,54.739,0,0,0,9.819.185,11.437,11.437,0,0,0,5.743.926,7.252,7.252,0,0,0,2.779,2.779,7.252,7.252,0,0,0,.926,5.743,8.441,8.441,0,0,0,.185,9.819,54.739,54.739,0,0,0,0,16.673a54.739,54.739,0,0,0,.185,6.855A11.437,11.437,0,0,0,.926,27.6a7.252,7.252,0,0,0,1.853,2.964A7.252,7.252,0,0,0,5.743,32.42a11.437,11.437,0,0,0,4.076.741,54.738,54.738,0,0,0,6.855.185,54.738,54.738,0,0,0,6.855-.185A11.437,11.437,0,0,0,27.6,32.42,7.772,7.772,0,0,0,32.42,27.6a11.437,11.437,0,0,0,.741-4.076c0-1.853.185-2.408.185-6.855a54.738,54.738,0,0,0-.185-6.855,11.437,11.437,0,0,0-.741-4.076,7.252,7.252,0,0,0-1.853-2.964A7.252,7.252,0,0,0,27.6.926,11.437,11.437,0,0,0,23.528.185,54.739,54.739,0,0,0,16.673,0m0,8.151a8.385,8.385,0,0,0-8.522,8.522,8.522,8.522,0,1,0,8.522-8.522m0,14.08a5.459,5.459,0,0,1-5.558-5.558,5.459,5.459,0,0,1,5.558-5.558,5.459,5.459,0,0,1,5.558,5.558,5.459,5.459,0,0,1-5.558,5.558M25.566,5.743A2.038,2.038,0,1,0,27.6,7.781a2.056,2.056,0,0,0-2.038-2.038" transform="translate(3 22.452)" fill="#00ff40" fill-rule="evenodd"/>
    </g>
  </g>
</svg>
