<svg id="Instagram" xmlns="http://www.w3.org/2000/svg" width="22.929" height="22.929" viewBox="0 0 22.929 22.929">
  <path id="Path_3" data-name="Path 3" d="M11.464,2.038a35.152,35.152,0,0,1,4.586.127,5.908,5.908,0,0,1,2.165.382,4.474,4.474,0,0,1,2.165,2.165,5.908,5.908,0,0,1,.382,2.165c0,1.146.127,1.529.127,4.586a35.152,35.152,0,0,1-.127,4.586,5.908,5.908,0,0,1-.382,2.165,4.474,4.474,0,0,1-2.165,2.165,5.908,5.908,0,0,1-2.165.382c-1.146,0-1.529.127-4.586.127a35.152,35.152,0,0,1-4.586-.127,5.908,5.908,0,0,1-2.165-.382,4.474,4.474,0,0,1-2.165-2.165,5.908,5.908,0,0,1-.382-2.165c0-1.146-.127-1.529-.127-4.586a35.152,35.152,0,0,1,.127-4.586,5.908,5.908,0,0,1,.382-2.165,4.575,4.575,0,0,1,.892-1.274,2.154,2.154,0,0,1,1.274-.892,5.908,5.908,0,0,1,2.165-.382,35.152,35.152,0,0,1,4.586-.127m0-2.038A37.637,37.637,0,0,0,6.751.127a7.864,7.864,0,0,0-2.8.51A4.987,4.987,0,0,0,1.911,1.911,4.987,4.987,0,0,0,.637,3.949a5.8,5.8,0,0,0-.51,2.8A37.637,37.637,0,0,0,0,11.464a37.637,37.637,0,0,0,.127,4.713,7.864,7.864,0,0,0,.51,2.8,4.987,4.987,0,0,0,1.274,2.038,4.987,4.987,0,0,0,2.038,1.274,7.864,7.864,0,0,0,2.8.51,37.637,37.637,0,0,0,4.713.127,37.637,37.637,0,0,0,4.713-.127,7.864,7.864,0,0,0,2.8-.51,5.344,5.344,0,0,0,3.312-3.312,7.864,7.864,0,0,0,.51-2.8c0-1.274.127-1.656.127-4.713A37.637,37.637,0,0,0,22.8,6.751a7.864,7.864,0,0,0-.51-2.8,4.987,4.987,0,0,0-1.274-2.038A4.987,4.987,0,0,0,18.98.637a7.864,7.864,0,0,0-2.8-.51A37.637,37.637,0,0,0,11.464,0m0,5.6a5.765,5.765,0,0,0-5.86,5.86,5.86,5.86,0,1,0,5.86-5.86m0,9.681a3.753,3.753,0,0,1-3.821-3.821,3.753,3.753,0,0,1,3.821-3.821,3.753,3.753,0,0,1,3.821,3.821,3.753,3.753,0,0,1-3.821,3.821M17.579,3.949a1.4,1.4,0,1,0,1.4,1.4,1.414,1.414,0,0,0-1.4-1.4" fill="#8e04d2" fill-rule="evenodd"/>
</svg>
