<svg xmlns="http://www.w3.org/2000/svg" width="23" height="23.268" viewBox="0 0 23 23.268">
  <g id="Search" transform="translate(0 0.482)">
    <rect id="Rectangle_693" data-name="Rectangle 693" width="23" height="23" transform="translate(0 -0.482)" fill="none"/>
    <path id="Path_208" data-name="Path 208" d="M22.785,20.779,18.056,16.05a9.812,9.812,0,0,0,2.006-6.019A9.969,9.969,0,0,0,10.031,0,9.969,9.969,0,0,0,0,10.031,9.969,9.969,0,0,0,10.031,20.062a9.812,9.812,0,0,0,6.019-2.006l4.729,4.729ZM2.866,10.031a7.1,7.1,0,0,1,7.165-7.165A7.1,7.1,0,0,1,17.2,10.031,7.1,7.1,0,0,1,10.031,17.2,7.1,7.1,0,0,1,2.866,10.031Z" fill="#4f504f"/>
  </g>
</svg>
