<svg xmlns="http://www.w3.org/2000/svg" width="45" height="45" viewBox="0 0 45 45">
  <g id="Twitter" transform="translate(-0.188 -24)">
    <g id="Group_5" data-name="Group 5">
      <g id="Group_4" data-name="Group 4">
        <path id="Path_209" data-name="Path 209" d="M10,0H35A10,10,0,0,1,45,10V35A10,10,0,0,1,35,45H10A10,10,0,0,1,0,35V10A10,10,0,0,1,10,0Z" transform="translate(0.188 24)" fill="#fff"/>
        <path id="Path_2" data-name="Path 2" d="M49.615,31.752c13.857,0,21.4-11.412,21.4-21.4V9.336A16.564,16.564,0,0,0,74.68,5.464,16.916,16.916,0,0,1,70.4,6.687a7.928,7.928,0,0,0,3.26-4.076,18.691,18.691,0,0,1-4.687,1.834A7.278,7.278,0,0,0,63.472,2a7.656,7.656,0,0,0-7.54,7.54,3.973,3.973,0,0,0,.2,1.63A21.068,21.068,0,0,1,40.649,3.223,7.8,7.8,0,0,0,39.63,7.094a8.1,8.1,0,0,0,3.26,6.317,6.87,6.87,0,0,1-3.464-1.019h0a7.447,7.447,0,0,0,6.113,7.336,6.282,6.282,0,0,1-2.038.2,3.468,3.468,0,0,1-1.426-.2,7.72,7.72,0,0,0,7.132,5.3,15.386,15.386,0,0,1-9.374,3.26,5.642,5.642,0,0,1-1.834-.2,19.234,19.234,0,0,0,11.615,3.668" transform="translate(-34 29.972)" fill="#00ff40" fill-rule="evenodd"/>
      </g>
    </g>
  </g>
</svg>
