<svg xmlns="http://www.w3.org/2000/svg" width="23.287" height="23" viewBox="0 0 23.287 23">
  <g id="Twitter" transform="translate(0 0.482)">
    <rect id="Rectangle_393" data-name="Rectangle 393" width="23" height="23" transform="translate(0.287 -0.482)" fill="none"/>
    <path id="Path_2" data-name="Path 2" d="M45.261,20.6A13.256,13.256,0,0,0,58.636,7.223V6.586a10.354,10.354,0,0,0,2.293-2.42,10.574,10.574,0,0,1-2.675.764,4.956,4.956,0,0,0,2.038-2.548,11.684,11.684,0,0,1-2.93,1.146A4.549,4.549,0,0,0,53.923,2a4.786,4.786,0,0,0-4.713,4.713,2.483,2.483,0,0,0,.127,1.019,13.17,13.17,0,0,1-9.681-4.968,4.878,4.878,0,0,0-.637,2.42,5.061,5.061,0,0,0,2.038,3.949A4.294,4.294,0,0,1,38.892,8.5h0a4.655,4.655,0,0,0,3.821,4.586,3.927,3.927,0,0,1-1.274.127,2.168,2.168,0,0,1-.892-.127,4.826,4.826,0,0,0,4.458,3.312,9.617,9.617,0,0,1-5.86,2.038A3.527,3.527,0,0,1,38,18.3,12.023,12.023,0,0,0,45.261,20.6" transform="translate(-38 0.865)" fill="#046bd2" fill-rule="evenodd"/>
  </g>
</svg>
