<svg id="Web" xmlns="http://www.w3.org/2000/svg" width="22.929" height="22.929" viewBox="0 0 22.929 22.929">
  <path id="Path_4" data-name="Path 4" d="M3.439,3.439A10.408,10.408,0,0,1,11.464,0a10.408,10.408,0,0,1,8.025,3.439,10.408,10.408,0,0,1,3.439,8.025,10.408,10.408,0,0,1-3.439,8.025,10.408,10.408,0,0,1-8.025,3.439,10.408,10.408,0,0,1-8.025-3.439A11.441,11.441,0,0,1,0,11.464,10.408,10.408,0,0,1,3.439,3.439Zm9.554,17.2q1.146,0,2.866-1.72A8.345,8.345,0,0,0,17.2,14.9a3.164,3.164,0,0,0-.955-2.293,3.363,3.363,0,0,0-2.484-1.146H11.846a5.579,5.579,0,0,1-1.72-.382,1.735,1.735,0,0,1-.573-1.337.993.993,0,0,1,.382-.764A1.449,1.449,0,0,1,10.7,8.6a1.3,1.3,0,0,1,.955.573c.382.191.573.382.764.382a1.149,1.149,0,0,0,.764-.191,1.149,1.149,0,0,0,.191-.764,3.041,3.041,0,0,0-.955-1.911,7.9,7.9,0,0,0,.955-3.63.411.411,0,0,0-.382-.382,5.907,5.907,0,0,0-1.529-.382A9.558,9.558,0,0,0,6.5,3.821a4.81,4.81,0,0,0-1.72,3.821,4.892,4.892,0,0,0,1.529,3.63A5.22,5.22,0,0,0,9.936,12.8h0v.764a2.453,2.453,0,0,0,.764,1.911,2.782,2.782,0,0,0,1.72,1.146v3.439c0,.191,0,.191.191.382S12.8,20.636,12.993,20.636Z"/>
</svg>
