<svg id="Instagram" xmlns="http://www.w3.org/2000/svg" width="44.513" height="44.513" viewBox="0 0 44.513 44.513">
  <path id="Path_3" data-name="Path 3" d="M22.256,3.957a68.243,68.243,0,0,1,8.9.247,11.47,11.47,0,0,1,4.2.742,8.685,8.685,0,0,1,4.2,4.2,11.47,11.47,0,0,1,.742,4.2c0,2.226.247,2.968.247,8.9a68.243,68.243,0,0,1-.247,8.9,11.47,11.47,0,0,1-.742,4.2,8.685,8.685,0,0,1-4.2,4.2,11.47,11.47,0,0,1-4.2.742c-2.226,0-2.968.247-8.9.247a68.243,68.243,0,0,1-8.9-.247,11.47,11.47,0,0,1-4.2-.742,8.685,8.685,0,0,1-4.2-4.2,11.47,11.47,0,0,1-.742-4.2c0-2.226-.247-2.968-.247-8.9a68.242,68.242,0,0,1,.247-8.9,11.47,11.47,0,0,1,.742-4.2A8.882,8.882,0,0,1,6.677,6.677,4.181,4.181,0,0,1,9.15,4.946a11.47,11.47,0,0,1,4.2-.742,68.242,68.242,0,0,1,8.9-.247m0-3.957a73.068,73.068,0,0,0-9.15.247,15.267,15.267,0,0,0-5.44.989A9.681,9.681,0,0,0,3.709,3.709,9.681,9.681,0,0,0,1.236,7.666a11.267,11.267,0,0,0-.989,5.44A73.068,73.068,0,0,0,0,22.256a73.068,73.068,0,0,0,.247,9.15,15.267,15.267,0,0,0,.989,5.44A9.681,9.681,0,0,0,3.709,40.8a9.681,9.681,0,0,0,3.957,2.473,15.267,15.267,0,0,0,5.44.989,73.068,73.068,0,0,0,9.15.247,73.068,73.068,0,0,0,9.15-.247,15.267,15.267,0,0,0,5.44-.989,10.375,10.375,0,0,0,6.43-6.43,15.267,15.267,0,0,0,.989-5.44c0-2.473.247-3.215.247-9.15a73.068,73.068,0,0,0-.247-9.15,15.267,15.267,0,0,0-.989-5.44A9.681,9.681,0,0,0,40.8,3.709a9.681,9.681,0,0,0-3.957-2.473,15.267,15.267,0,0,0-5.44-.989A73.068,73.068,0,0,0,22.256,0m0,10.881A11.192,11.192,0,0,0,10.881,22.256,11.375,11.375,0,1,0,22.256,10.881m0,18.794a7.286,7.286,0,0,1-7.419-7.419,7.286,7.286,0,0,1,7.419-7.419,7.286,7.286,0,0,1,7.419,7.419,7.286,7.286,0,0,1-7.419,7.419M34.126,7.666a2.72,2.72,0,1,0,2.72,2.72,2.744,2.744,0,0,0-2.72-2.72" fill="#a504f3" fill-rule="evenodd"/>
</svg>
