<svg id="Twitter" xmlns="http://www.w3.org/2000/svg" width="55.138" height="44.723" viewBox="0 0 55.138 44.723">
  <path id="Path_2" data-name="Path 2" d="M55.461,46.723c20.83,0,32.164-17.154,32.164-32.164V13.028a24.9,24.9,0,0,0,5.514-5.82,25.429,25.429,0,0,1-6.433,1.838,11.918,11.918,0,0,0,4.9-6.126,28.1,28.1,0,0,1-7.045,2.757A10.94,10.94,0,0,0,76.291,2,11.509,11.509,0,0,0,64.957,13.334a5.972,5.972,0,0,0,.306,2.451A31.67,31.67,0,0,1,41.982,3.838a11.731,11.731,0,0,0-1.532,5.82,12.171,12.171,0,0,0,4.9,9.5,10.327,10.327,0,0,1-5.208-1.532h0a11.2,11.2,0,0,0,9.19,11.028,9.444,9.444,0,0,1-3.063.306,5.213,5.213,0,0,1-2.144-.306,11.6,11.6,0,0,0,10.721,7.964,23.128,23.128,0,0,1-14.091,4.9A8.481,8.481,0,0,1,38,41.21a28.914,28.914,0,0,0,17.461,5.514" transform="translate(-38 -2)" fill="#0bd9e8" fill-rule="evenodd"/>
</svg>
